<svg version="1.1" xmlns="http://www.w3.org/2000/svg" xmlns:xlink="http://www.w3.org/1999/xlink" width="1524" height="993"><defs><clipPath id="slCtGJPzygOc"><path fill="none" stroke="none" d=" M 0 0 L 1524 0 L 1524 993 L 0 993 L 0 0 Z"/></clipPath></defs><g transform="scale(1,1)" clip-path="url(#slCtGJPzygOc)"><g><rect fill="rgb(255,255,255)" stroke="none" x="0" y="0" width="1524" height="993" fill-opacity="1"/><path fill="none" stroke="rgb(28,28,31)" paint-order="fill stroke markers" d=" M 72 3 L 72 993" stroke-opacity="1" stroke-miterlimit="10" stroke-width="2"/><path fill="rgb(28,28,31)" stroke="none" paint-order="stroke fill markers" fill-rule="evenodd" d=" M 72.2211118889077 2 L 67.2211118889077 22 L 77.2211118889077 22" fill-opacity="1"/><path fill="none" stroke="rgb(28,28,31)" paint-order="fill stroke markers" d=" M 72 885 L 1521 885" stroke-opacity="1" stroke-miterlimit="10" stroke-width="2"/><path fill="rgb(28,28,31)" stroke="none" paint-order="stroke fill markers" fill-rule="evenodd" d=" M 1522 885.0346816100492 L 1502 880.0346816100492 L 1502 890.0346816100492" fill-opacity="1"/><path fill="none" stroke="rgb(0,0,0)" paint-order="fill stroke markers" d=" M 72.22111146050695 885.0346826382112 L 74.80586823025348 878.8468615205346 L 77.39062500000001 872.6902306726272 M 77.39062500000001 872.6902306726272 L 80.36718750000001 865.6389984415489 L 83.34375000000001 858.6291289961947 M 83.34375000000001 858.6291289961947 L 86.32031250000001 851.660622336565 L 89.29687500000001 844.7334784626597 L 92.27343750000001 837.8476973744788 L 95.25000000000001 831.0032790720225 M 95.25000000000001 831.0032790720225 L 98.22656250000001 824.2002235552903 L 101.20312500000001 817.4385308242828 L 104.17968750000001 810.7182008789996 L 107.15625000000003 804.0392337194411 L 110.13281250000003 797.4016293456068 L 113.10937500000003 790.805387757497 L 116.08593750000003 784.2505089551115 L 119.06250000000003 777.7369929384505 L 122.03906250000003 771.2648397075139 L 125.01562500000003 764.8340492623017 L 127.99218750000003 758.4446216028142 L 130.96875000000003 752.0965567290507 L 133.94531250000003 745.789854641012 L 136.92187500000003 739.5245153386976 L 139.8984375 733.3005388221077 L 142.87500000000003 727.117925091242 L 145.8515625 720.9766741461008 L 148.82812500000003 714.8767859866841 L 151.8046875 708.8182606129918 L 154.78125000000003 702.8010980250241 L 157.7578125 696.8252982227807 L 160.73437500000003 690.8908612062617 L 163.7109375 684.9977869754671 L 166.68750000000003 679.1460755303968 L 169.66406250000006 673.3357268710512 L 172.64062500000003 667.5667409974299 L 175.61718750000006 661.839117909533 L 178.59375000000003 656.1528576073605 L 181.5703125 650.5079600909127 L 184.54687500000003 644.9044253601891 L 187.5234375 639.34225341519 L 190.50000000000003 633.8214442559153 M 190.50000000000003 633.8214442559153 L 193.47656250000006 628.3419978823649 L 196.45312500000003 622.9039142945389 L 199.42968750000006 617.5071934924376 L 202.40625000000003 612.1518354760608 L 205.38281250000003 606.837840245408 L 208.35937500000003 601.56520780048 L 211.33593750000003 596.3339381412762 L 214.31250000000003 591.1440312677969 L 217.28906250000003 585.9954871800421 L 220.26562500000003 580.8883058780116 L 223.24218750000003 575.8224873617056 L 226.21875000000003 570.7980316311241 L 232.17187500000006 560.8732085271341 L 238.12500000000003 551.1138365660421 L 244.07812500000006 541.5199157478476 L 250.03125000000003 532.091446072551 L 255.98437500000006 522.8284275401519 L 261.9375 513.7308601506506 L 267.89062500000006 504.79874390404706 L 273.84375000000006 496.03207880034114 L 279.79687500000006 487.430864839533 L 285.75 478.9951020216226 L 291.70312500000006 470.72479034660984 L 297.65625000000006 462.6199298144948 L 303.60937500000006 454.6805204252775 L 309.5625 446.906562178958 L 315.51562500000006 439.29805507553607 L 321.46875000000006 431.8549991150119 L 327.42187500000006 424.57739429738547 L 333.3750000000001 417.4652406226567 L 339.328125 410.51853809082564 L 345.2812500000001 403.73728670189234 L 351.2343750000001 397.1214864558567 L 357.1875000000001 390.6711373527189 L 363.140625 384.3862393924787 L 369.0937500000001 378.26679257513626 L 375.046875 372.3127969006915 L 381.0000000000001 366.5242523691445 M 381.0000000000001 366.5242523691445 L 386.953125 360.9011589804952 L 392.9062500000001 355.4435167347435 L 398.8593750000001 350.1513256318897 L 404.8125000000001 345.02458567193344 L 410.765625 340.06329685487503 L 416.7187500000001 335.26745918071435 L 422.6718750000001 330.63707264945117 L 428.6250000000001 326.17213726108594 L 434.578125 321.8726530156183 L 440.5312500000001 317.7386199130484 L 446.4843750000001 313.77003795337623 L 452.4375 309.9669071366018 L 458.390625 306.32922746272504 L 464.3437500000001 302.8569989317459 L 470.2968750000001 299.5502215436645 L 476.2500000000001 296.40889529848096 L 482.203125 293.4330201961951 L 488.1562500000001 290.6225962368069 L 494.1093750000001 287.9776234203164 L 500.0625 285.4981017467237 L 506.015625 283.18403121602853 L 511.9687500000001 281.0354118282312 L 517.9218750000001 279.0522435833316 L 523.8750000000001 277.2345264813297 L 529.828125 275.5822605222255 L 535.7812500000001 274.09544570601895 L 541.7343750000001 272.7740820327102 L 547.6875 271.6181695022992 L 553.640625 270.62770811478583 L 559.59375 269.80269787017016 L 565.5468750000001 269.14313876845233 L 571.5000000000001 268.649030809632 L 577.4531250000001 268.3203739937096 L 583.40625 268.15716832068483 L 589.359375 268.15941379055766 L 595.3125 268.32711040332833 L 601.265625 268.6602581589967 L 607.21875 269.15885705756284 L 613.171875 269.82290709902657 L 619.1250000000001 270.6524082833881 L 625.0781250000001 271.6473606106473 L 631.03125 272.8077640808042 L 636.984375 274.1336186938588 L 642.9375 275.62492444981115 L 648.890625 277.2816813486612 L 654.84375 279.103889390409 L 660.796875 281.0915485750545 L 666.7500000000001 283.24465890259773 L 672.7031250000001 285.5632203730387 L 678.65625 288.04723298637725 L 684.609375 290.69669674261354 L 690.5625 293.51161164174755 L 696.515625 296.4919776837794 L 702.46875 299.63779486870885 L 708.421875 302.94906319653603 L 714.3750000000001 306.42578266726093 L 720.3281250000001 310.06795328088367 L 726.2812500000001 313.875575037404 L 732.234375 317.84864793682186 L 738.1875 321.98717197913766 L 744.140625 326.2911471643512 L 750.09375 330.7605734924624 L 756.046875 335.39545096347126 L 762.0000000000001 340.19577957737795 M 762.0000000000001 340.19577957737795 L 767.9531250000001 345.16155933418224 L 773.9062500000001 350.29279023388426 L 779.8593750000001 355.5894722764841 L 785.8125000000001 361.0516054619816 L 791.765625 366.67918979037654 L 797.71875 372.47222526166956 L 803.671875 378.43071187586014 L 809.6250000000001 384.55464963294844 L 815.5781250000001 390.8440385329345 L 821.5312500000001 397.29887857581826 L 827.4843750000001 403.9191697615998 L 833.4375 410.70491209027875 L 839.390625 417.65610556185567 L 845.34375 424.7727501763303 L 851.296875 432.0548459337026 L 857.2500000000001 439.50239283397264 L 863.2031250000001 447.11539087714044 L 869.1562500000001 454.89384006320586 L 875.1093750000001 462.83774039216905 L 881.0625000000001 470.94709186403 L 887.015625 479.2218944787884 L 892.96875 487.6621482364447 L 898.921875 496.2678531369988 L 904.8750000000001 505.03900918045053 L 910.8281250000001 513.9756163667998 L 916.7812500000001 523.0776746960471 L 922.7343750000001 532.345184168192 L 928.6875 541.7781447832344 L 934.6406250000001 551.376556541175 L 940.59375 561.1404194420127 L 946.546875 571.0697334857485 L 949.5234375000001 576.0964346862031 L 952.5000000000001 581.1644986723819 L 955.4765625 586.2739254442853 L 958.4531250000001 591.4247150019131 L 961.4296875 596.6168673452653 L 964.4062500000001 601.850382474342 L 967.3828125 607.125260389143 L 970.359375 612.4415010896685 L 973.3359375 617.7991045759185 L 976.3125000000001 623.198070847893 L 979.2890625000001 628.6383999055915 L 982.265625 634.1200917490147 L 985.2421875000001 639.6431463781626 L 988.21875 645.2075637930345 L 991.1953125000001 650.8133439936311 L 994.171875 656.4604869799518 L 997.1484375 662.1489927519971 L 1000.125 667.8788613097671 L 1003.1015625000001 673.6500926532615 L 1006.0781250000001 679.46268678248 L 1009.0546875 685.3166436974229 L 1012.0312500000001 691.2119633980906 L 1015.0078125 697.1486458844823 L 1017.9843750000001 703.1266911565989 L 1020.9609375 709.1460992144396 L 1023.9375 715.2068700580046 L 1026.9140625000002 721.3090036872944 L 1029.8906250000002 727.4525001023086 L 1032.8671875000002 733.637359303047 L 1035.84375 739.8635812895099 L 1038.8203125000002 746.1311660616973 L 1041.796875 752.4401136196091 L 1044.7734375000002 758.7904239632454 L 1047.75 765.1820970926059 L 1050.7265625 771.6151330076907 L 1053.7031250000002 778.0895317085004 L 1056.6796875 784.6052931950342 L 1059.6562500000002 791.1624174672927 L 1062.6328125 797.7609045252754 L 1065.609375 804.4007543689823 L 1068.5859375 811.0819669984143 L 1071.5625000000002 817.8045424135704 L 1074.5390625000002 824.5684806144509 L 1077.515625 831.3737816010556 L 1080.4921875000002 838.2204453733852 L 1083.46875 845.1084719314388 L 1086.4453125000002 852.0378612752172 L 1089.421875 859.0086134047198 L 1092.3984375 866.0207283199466 L 1095.375 873.0742060208981 L 1098.3515625000002 880.1690465075743 L 1101.328125 887.3052497799746 L 1104.3046875 894.4828158380991 L 1107.28125 901.7017446819485 L 1110.2578125 908.9620363115221 L 1113.234375 916.2636907268203 L 1116.2109375 923.6067079278426 L 1119.1875 930.9910879145893 L 1122.1640625 938.4168306870608 L 1125.1406250000002 945.8839362452569 L 1128.1171875 953.392404589177 L 1131.09375 960.9422357188215 L 1134.0703125 968.5334296341902 L 1137.046875 976.1659863352841 L 1140.0234375000002 983.8399058221021 L 1143 991.5551880946442 L 1145.9765625 999.3118331529108" stroke-opacity="0.8" stroke-linecap="round" stroke-linejoin="round" stroke-miterlimit="10" stroke-width="2.5"/><path fill="none" stroke="rgb(0,0,0)" paint-order="fill stroke markers" d=" M 586.302017876263 998 L 586.302017876263 -5" stroke-opacity="0.8" stroke-linejoin="round" stroke-miterlimit="10" stroke-width="2.5" stroke-dasharray="6.5,4"/><path fill="rgb(28,28,31)" stroke="none" paint-order="stroke fill markers" d=" M 591.302017876263 268.1375944252246 C 591.302017876263 270.89901817437857 589.063441625417 273.1375944252246 586.302017876263 273.1375944252246 C 583.540594127109 273.1375944252246 581.302017876263 270.89901817437857 581.302017876263 268.1375944252246 C 581.302017876263 265.37617067607067 583.540594127109 263.1375944252246 586.302017876263 263.1375944252246 C 589.063441625417 263.1375944252246 591.302017876263 265.37617067607067 591.302017876263 268.1375944252246 Z" fill-opacity="1"/><path fill="none" stroke="rgb(0,0,0)" paint-order="fill stroke markers" d=" M 591.302017876263 268.1375944252246 C 591.302017876263 270.89901817437857 589.063441625417 273.1375944252246 586.302017876263 273.1375944252246 C 583.540594127109 273.1375944252246 581.302017876263 270.89901817437857 581.302017876263 268.1375944252246 C 581.302017876263 265.37617067607067 583.540594127109 263.1375944252246 586.302017876263 263.1375944252246 C 589.063441625417 263.1375944252246 591.302017876263 265.37617067607067 591.302017876263 268.1375944252246 Z" stroke-opacity="1" stroke-linecap="round" stroke-linejoin="round" stroke-miterlimit="10"/><g transform="scale(35,35)"><g transform="translate(38.628571428571426,24.568714285714286)"><path fill="rgb(0,0,0)" stroke="none" paint-order="stroke fill markers" d=" M 0.06787109375 0 Q 0.05810546875 0 0.05810546875 -0.01318359375 Q 0.05859375 -0.015625 0.060302734375 -0.02197265625 Q 0.06201171875 -0.0283203125 0.064697265625 -0.03173828125 Q 0.0673828125 -0.03515625 0.07177734375 -0.03515625 Q 0.1083984375 -0.03515625 0.136962890625 -0.052001953125 Q 0.16552734375 -0.06884765625 0.18310546875 -0.10009765625 Q 0.18310546875 -0.1005859375 0.18408203125 -0.1015625 Q 0.18505859375 -0.1025390625 0.18505859375 -0.10302734375 L 0.52587890625 -0.705078125 Q 0.53125 -0.7158203125 0.5439453125 -0.7158203125 L 0.55712890625 -0.7158203125 Q 0.56201171875 -0.7158203125 0.56591796875 -0.713134765625 Q 0.56982421875 -0.71044921875 0.56982421875 -0.705078125 L 0.61181640625 -0.05810546875 Q 0.6142578125 -0.0478515625 0.6259765625 -0.042724609375 Q 0.6376953125 -0.03759765625 0.6513671875 -0.036376953125 Q 0.6650390625 -0.03515625 0.68310546875 -0.03515625 Q 0.69287109375 -0.03515625 0.69287109375 -0.02197265625 Q 0.689453125 -0.0078125 0.6875 -0.00390625 Q 0.685546875 0 0.67578125 0 L 0.44482421875 0 Q 0.43505859375 0 0.43505859375 -0.01318359375 Q 0.435546875 -0.015625 0.43701171875 -0.021484375 Q 0.4384765625 -0.02734375 0.44091796875 -0.03125 Q 0.443359375 -0.03515625 0.4482421875 -0.03515625 Q 0.4775390625 -0.03515625 0.5 -0.0400390625 Q 0.5224609375 -0.044921875 0.52587890625 -0.06298828125 L 0.51513671875 -0.22412109375 L 0.2900390625 -0.22412109375 L 0.216796875 -0.0927734375 Q 0.208984375 -0.0791015625 0.208984375 -0.06689453125 Q 0.208984375 -0.0498046875 0.223876953125 -0.04248046875 Q 0.23876953125 -0.03515625 0.2568359375 -0.03515625 Q 0.26708984375 -0.03515625 0.26708984375 -0.02197265625 Q 0.263671875 -0.0078125 0.26171875 -0.00390625 Q 0.259765625 0 0.25 0 L 0.06787109375 0 M 0.31005859375 -0.2587890625 L 0.51318359375 -0.2587890625 L 0.4921875 -0.5791015625 L 0.31005859375 -0.2587890625 Z" fill-opacity="1"/></g><g transform="translate(39.345571428571425,24.568714285714286)"><path fill="rgb(0,0,0)" stroke="none" paint-order="stroke fill markers" d=" M 0.125 -0.01611328125 Q 0.125 -0.02099609375 0.1259765625 -0.02392578125 L 0.201171875 -0.32421875 Q 0.208984375 -0.361328125 0.208984375 -0.3779296875 Q 0.208984375 -0.416015625 0.18408203125 -0.416015625 Q 0.15869140625 -0.416015625 0.143798828125 -0.37744140625 Q 0.12890625 -0.3388671875 0.115234375 -0.2841796875 Q 0.1123046875 -0.27783203125 0.10693359375 -0.27783203125 L 0.0888671875 -0.27783203125 Q 0.0859375 -0.27783203125 0.08349609375 -0.281494140625 Q 0.0810546875 -0.28515625 0.0810546875 -0.2880859375 Q 0.0927734375 -0.3359375 0.101806640625 -0.36376953125 Q 0.11083984375 -0.3916015625 0.132080078125 -0.416748046875 Q 0.1533203125 -0.44189453125 0.18505859375 -0.44189453125 Q 0.21875 -0.44189453125 0.24267578125 -0.421142578125 Q 0.2666015625 -0.400390625 0.27197265625 -0.3662109375 Q 0.3310546875 -0.44189453125 0.4150390625 -0.44189453125 Q 0.4462890625 -0.44189453125 0.47021484375 -0.429443359375 Q 0.494140625 -0.4169921875 0.507080078125 -0.393310546875 Q 0.52001953125 -0.36962890625 0.52001953125 -0.337890625 Q 0.52001953125 -0.2958984375 0.50146484375 -0.236083984375 Q 0.48291015625 -0.17626953125 0.4560546875 -0.10498046875 Q 0.44091796875 -0.06640625 0.44091796875 -0.041015625 Q 0.44091796875 -0.01513671875 0.4609375 -0.01513671875 Q 0.49853515625 -0.01513671875 0.520263671875 -0.055908203125 Q 0.5419921875 -0.0966796875 0.55419921875 -0.14697265625 Q 0.55615234375 -0.15283203125 0.56201171875 -0.15283203125 L 0.580078125 -0.15283203125 Q 0.583984375 -0.15283203125 0.58642578125 -0.150146484375 Q 0.5888671875 -0.1474609375 0.5888671875 -0.14404296875 Q 0.5888671875 -0.14306640625 0.587890625 -0.14111328125 Q 0.57958984375 -0.1064453125 0.56298828125 -0.0712890625 Q 0.54638671875 -0.0361328125 0.51953125 -0.012451171875 Q 0.49267578125 0.01123046875 0.458984375 0.01123046875 Q 0.42431640625 0.01123046875 0.402587890625 -0.011962890625 Q 0.380859375 -0.03515625 0.380859375 -0.06982421875 Q 0.380859375 -0.09130859375 0.38916015625 -0.11083984375 Q 0.4169921875 -0.185546875 0.43603515625 -0.24658203125 Q 0.455078125 -0.3076171875 0.455078125 -0.35302734375 Q 0.455078125 -0.37841796875 0.445556640625 -0.397216796875 Q 0.43603515625 -0.416015625 0.4130859375 -0.416015625 Q 0.3212890625 -0.416015625 0.2587890625 -0.2841796875 L 0.19287109375 -0.02001953125 Q 0.18994140625 -0.00732421875 0.1787109375 0.001953125 Q 0.16748046875 0.01123046875 0.15380859375 0.01123046875 Q 0.14208984375 0.01123046875 0.133544921875 0.003173828125 Q 0.125 -0.0048828125 0.125 -0.01611328125 Z" fill-opacity="1"/></g><g transform="translate(39.90757142857142,24.568714285714286)"><path fill="rgb(0,0,0)" stroke="none" paint-order="stroke fill markers" d=" M 0.10205078125 -0.02880859375 Q 0.11865234375 -0.01513671875 0.14501953125 -0.01513671875 Q 0.17529296875 -0.01513671875 0.19580078125 -0.045166015625 Q 0.21630859375 -0.0751953125 0.22509765625 -0.11083984375 L 0.27001953125 -0.2900390625 Q 0.28076171875 -0.33203125 0.28076171875 -0.35693359375 Q 0.28076171875 -0.38134765625 0.26953125 -0.398681640625 Q 0.25830078125 -0.416015625 0.23583984375 -0.416015625 Q 0.20654296875 -0.416015625 0.18115234375 -0.3955078125 Q 0.15576171875 -0.375 0.13916015625 -0.344482421875 Q 0.12255859375 -0.31396484375 0.115234375 -0.2841796875 Q 0.1123046875 -0.27783203125 0.10693359375 -0.27783203125 L 0.0888671875 -0.27783203125 Q 0.0810546875 -0.27783203125 0.0810546875 -0.287109375 L 0.0810546875 -0.2900390625 Q 0.09033203125 -0.326171875 0.11279296875 -0.361572265625 Q 0.13525390625 -0.39697265625 0.16748046875 -0.41943359375 Q 0.19970703125 -0.44189453125 0.23681640625 -0.44189453125 Q 0.26904296875 -0.44189453125 0.295166015625 -0.4248046875 Q 0.3212890625 -0.40771484375 0.333984375 -0.3779296875 Q 0.3505859375 -0.40576171875 0.375244140625 -0.423828125 Q 0.39990234375 -0.44189453125 0.42822265625 -0.44189453125 Q 0.4453125 -0.44189453125 0.46044921875 -0.43798828125 Q 0.4755859375 -0.43408203125 0.48828125 -0.42578125 Q 0.5009765625 -0.41748046875 0.509033203125 -0.405029296875 Q 0.51708984375 -0.392578125 0.51708984375 -0.375 Q 0.51708984375 -0.3515625 0.502197265625 -0.334716796875 Q 0.4873046875 -0.31787109375 0.4638671875 -0.31787109375 Q 0.44970703125 -0.31787109375 0.439453125 -0.3271484375 Q 0.42919921875 -0.33642578125 0.42919921875 -0.35107421875 Q 0.42919921875 -0.369140625 0.44091796875 -0.38330078125 Q 0.45263671875 -0.3974609375 0.46923828125 -0.40185546875 Q 0.45361328125 -0.416015625 0.42578125 -0.416015625 Q 0.396484375 -0.416015625 0.37548828125 -0.385498046875 Q 0.3544921875 -0.35498046875 0.34619140625 -0.31982421875 L 0.30078125 -0.14111328125 Q 0.29736328125 -0.12451171875 0.293701171875 -0.106201171875 Q 0.2900390625 -0.087890625 0.2900390625 -0.07421875 Q 0.2900390625 -0.05029296875 0.3017578125 -0.03271484375 Q 0.3134765625 -0.01513671875 0.3359375 -0.01513671875 Q 0.36572265625 -0.01513671875 0.390869140625 -0.03564453125 Q 0.416015625 -0.05615234375 0.432373046875 -0.086181640625 Q 0.44873046875 -0.1162109375 0.4560546875 -0.14697265625 Q 0.4580078125 -0.15283203125 0.4638671875 -0.15283203125 L 0.48193359375 -0.15283203125 Q 0.48583984375 -0.15283203125 0.488525390625 -0.150390625 Q 0.4912109375 -0.14794921875 0.4912109375 -0.14404296875 Q 0.4912109375 -0.14306640625 0.490234375 -0.14111328125 Q 0.48095703125 -0.10400390625 0.458984375 -0.06884765625 Q 0.43701171875 -0.03369140625 0.404052734375 -0.01123046875 Q 0.37109375 0.01123046875 0.333984375 0.01123046875 Q 0.3017578125 0.01123046875 0.276123046875 -0.006103515625 Q 0.25048828125 -0.0234375 0.23779296875 -0.05322265625 Q 0.22119140625 -0.025390625 0.197265625 -0.007080078125 Q 0.17333984375 0.01123046875 0.14404296875 0.01123046875 Q 0.10986328125 0.01123046875 0.08251953125 -0.006103515625 Q 0.05517578125 -0.0234375 0.05517578125 -0.05615234375 Q 0.05517578125 -0.0791015625 0.070068359375 -0.095947265625 Q 0.0849609375 -0.11279296875 0.10693359375 -0.11279296875 Q 0.12255859375 -0.11279296875 0.1328125 -0.103759765625 Q 0.14306640625 -0.0947265625 0.14306640625 -0.080078125 Q 0.14306640625 -0.0625 0.13134765625 -0.04833984375 Q 0.11962890625 -0.0341796875 0.10205078125 -0.02880859375 Z" fill-opacity="1"/></g><g transform="translate(40.37157142857142,24.568714285714286)"><path fill="rgb(0,0,0)" stroke="none" paint-order="stroke fill markers" d=" M 0.126953125 -0.06982421875 Q 0.126953125 -0.09326171875 0.1337890625 -0.11083984375 L 0.2138671875 -0.326171875 Q 0.22802734375 -0.36474609375 0.22802734375 -0.39013671875 Q 0.22802734375 -0.416015625 0.208984375 -0.416015625 Q 0.14697265625 -0.416015625 0.115234375 -0.2841796875 Q 0.1123046875 -0.27783203125 0.10693359375 -0.27783203125 L 0.0888671875 -0.27783203125 Q 0.0810546875 -0.27783203125 0.0810546875 -0.287109375 L 0.0810546875 -0.2900390625 Q 0.09716796875 -0.35009765625 0.128662109375 -0.39599609375 Q 0.16015625 -0.44189453125 0.2109375 -0.44189453125 Q 0.2451171875 -0.44189453125 0.2666015625 -0.4189453125 Q 0.2880859375 -0.39599609375 0.2880859375 -0.36083984375 Q 0.2880859375 -0.341796875 0.28076171875 -0.31982421875 L 0.201171875 -0.10498046875 Q 0.18701171875 -0.06640625 0.18701171875 -0.041015625 Q 0.18701171875 -0.01513671875 0.2060546875 -0.01513671875 Q 0.26708984375 -0.01513671875 0.298828125 -0.14697265625 Q 0.30078125 -0.15283203125 0.30712890625 -0.15283203125 L 0.3251953125 -0.15283203125 Q 0.3291015625 -0.15283203125 0.33154296875 -0.150146484375 Q 0.333984375 -0.1474609375 0.333984375 -0.14404296875 Q 0.333984375 -0.14306640625 0.3330078125 -0.14111328125 Q 0.32470703125 -0.1064453125 0.30810546875 -0.0712890625 Q 0.29150390625 -0.0361328125 0.26513671875 -0.012451171875 Q 0.23876953125 0.01123046875 0.2041015625 0.01123046875 Q 0.17041015625 0.01123046875 0.148681640625 -0.011962890625 Q 0.126953125 -0.03515625 0.126953125 -0.06982421875 M 0.2412109375 -0.60498046875 Q 0.2412109375 -0.625 0.257080078125 -0.640380859375 Q 0.27294921875 -0.65576171875 0.29296875 -0.65576171875 Q 0.30810546875 -0.65576171875 0.318115234375 -0.646240234375 Q 0.328125 -0.63671875 0.328125 -0.6220703125 Q 0.328125 -0.609375 0.321044921875 -0.597412109375 Q 0.31396484375 -0.58544921875 0.301513671875 -0.578125 Q 0.2890625 -0.57080078125 0.27587890625 -0.57080078125 Q 0.26220703125 -0.57080078125 0.251708984375 -0.580810546875 Q 0.2412109375 -0.5908203125 0.2412109375 -0.60498046875 Z" fill-opacity="1"/></g><g transform="translate(40.67857142857142,24.568714285714286)"><path fill="rgb(0,0,0)" stroke="none" paint-order="stroke fill markers" d=" M 0.2548828125 0.01123046875 Q 0.220703125 0.01123046875 0.193603515625 -0.00341796875 Q 0.16650390625 -0.01806640625 0.14794921875 -0.044677734375 Q 0.12939453125 -0.0712890625 0.12060546875 -0.101806640625 Q 0.11181640625 -0.13232421875 0.11181640625 -0.1650390625 Q 0.11181640625 -0.216796875 0.130615234375 -0.266357421875 Q 0.1494140625 -0.31591796875 0.18359375 -0.35595703125 Q 0.2177734375 -0.39599609375 0.264404296875 -0.4189453125 Q 0.31103515625 -0.44189453125 0.36376953125 -0.44189453125 Q 0.3896484375 -0.44189453125 0.412841796875 -0.43212890625 Q 0.43603515625 -0.42236328125 0.450439453125 -0.403076171875 Q 0.46484375 -0.3837890625 0.46484375 -0.35693359375 Q 0.46484375 -0.27587890625 0.387451171875 -0.25244140625 Q 0.31005859375 -0.22900390625 0.205078125 -0.22900390625 L 0.2021484375 -0.22900390625 Q 0.18505859375 -0.16259765625 0.18505859375 -0.12109375 Q 0.18505859375 -0.0810546875 0.202392578125 -0.048095703125 Q 0.2197265625 -0.01513671875 0.2568359375 -0.01513671875 Q 0.3095703125 -0.01513671875 0.359130859375 -0.043701171875 Q 0.40869140625 -0.072265625 0.44189453125 -0.1181640625 Q 0.443359375 -0.12109375 0.44921875 -0.12109375 Q 0.455078125 -0.12109375 0.4658203125 -0.10693359375 Q 0.4677734375 -0.10595703125 0.4677734375 -0.10107421875 Q 0.4677734375 -0.09716796875 0.4658203125 -0.09521484375 Q 0.44287109375 -0.0625 0.4091796875 -0.038330078125 Q 0.37548828125 -0.01416015625 0.33544921875 -0.00146484375 Q 0.29541015625 0.01123046875 0.2548828125 0.01123046875 M 0.2080078125 -0.2548828125 Q 0.26318359375 -0.2548828125 0.3076171875 -0.260498046875 Q 0.35205078125 -0.26611328125 0.387451171875 -0.288818359375 Q 0.4228515625 -0.3115234375 0.4228515625 -0.35693359375 Q 0.4228515625 -0.3828125 0.4052734375 -0.3994140625 Q 0.3876953125 -0.416015625 0.36181640625 -0.416015625 Q 0.3037109375 -0.416015625 0.265380859375 -0.368896484375 Q 0.22705078125 -0.32177734375 0.2080078125 -0.2548828125 Z" fill-opacity="1"/></g><g transform="translate(41.138571428571424,24.568714285714286)"><path fill="rgb(0,0,0)" stroke="none" paint-order="stroke fill markers" d=" M 0.1171875 -0.0791015625 Q 0.1171875 -0.08935546875 0.12109375 -0.10888671875 L 0.19287109375 -0.39599609375 L 0.10009765625 -0.39599609375 Q 0.08984375 -0.39599609375 0.08984375 -0.4091796875 Q 0.09375 -0.43115234375 0.10302734375 -0.43115234375 L 0.2021484375 -0.43115234375 L 0.2431640625 -0.59521484375 Q 0.24560546875 -0.6044921875 0.2509765625 -0.611083984375 Q 0.25634765625 -0.61767578125 0.26513671875 -0.621826171875 Q 0.27392578125 -0.6259765625 0.2822265625 -0.6259765625 Q 0.294921875 -0.6259765625 0.302978515625 -0.618408203125 Q 0.31103515625 -0.61083984375 0.31103515625 -0.59912109375 Q 0.31103515625 -0.59423828125 0.31005859375 -0.5908203125 L 0.27001953125 -0.43115234375 L 0.36279296875 -0.43115234375 Q 0.373046875 -0.43115234375 0.373046875 -0.41796875 Q 0.37255859375 -0.41552734375 0.37109375 -0.40966796875 Q 0.36962890625 -0.40380859375 0.3671875 -0.39990234375 Q 0.36474609375 -0.39599609375 0.35986328125 -0.39599609375 L 0.26123046875 -0.39599609375 L 0.18896484375 -0.10693359375 Q 0.18115234375 -0.07666015625 0.18115234375 -0.05322265625 Q 0.18115234375 -0.01513671875 0.2060546875 -0.01513671875 Q 0.2470703125 -0.01513671875 0.276611328125 -0.0556640625 Q 0.30615234375 -0.09619140625 0.32421875 -0.14697265625 Q 0.328125 -0.15283203125 0.33203125 -0.15283203125 L 0.35009765625 -0.15283203125 Q 0.35400390625 -0.15283203125 0.3564453125 -0.150146484375 Q 0.35888671875 -0.1474609375 0.35888671875 -0.14404296875 Q 0.35888671875 -0.14208984375 0.35791015625 -0.14111328125 Q 0.33740234375 -0.08251953125 0.29736328125 -0.03564453125 Q 0.25732421875 0.01123046875 0.2041015625 0.01123046875 Q 0.17919921875 0.01123046875 0.158935546875 -0.000732421875 Q 0.138671875 -0.0126953125 0.1279296875 -0.033203125 Q 0.1171875 -0.0537109375 0.1171875 -0.0791015625 Z" fill-opacity="1"/></g><g transform="translate(41.470571428571425,24.568714285714286)"><path fill="rgb(0,0,0)" stroke="none" paint-order="stroke fill markers" d=" M 0.134765625 0.14013671875 Q 0.14208984375 0.15771484375 0.15869140625 0.16845703125 Q 0.17529296875 0.17919921875 0.19580078125 0.17919921875 Q 0.23876953125 0.17919921875 0.271240234375 0.146484375 Q 0.3037109375 0.11376953125 0.322998046875 0.069580078125 Q 0.34228515625 0.025390625 0.35498046875 -0.02294921875 Q 0.31591796875 0.01123046875 0.26806640625 0.01123046875 Q 0.21435546875 0.01123046875 0.18408203125 -0.02001953125 Q 0.15380859375 -0.05126953125 0.15380859375 -0.10498046875 Q 0.15380859375 -0.1376953125 0.162841796875 -0.174072265625 Q 0.171875 -0.21044921875 0.18701171875 -0.25244140625 Q 0.2021484375 -0.29443359375 0.2138671875 -0.326171875 Q 0.22900390625 -0.36279296875 0.22900390625 -0.39013671875 Q 0.22900390625 -0.416015625 0.208984375 -0.416015625 Q 0.14697265625 -0.416015625 0.115234375 -0.2841796875 Q 0.1123046875 -0.27783203125 0.10693359375 -0.27783203125 L 0.0888671875 -0.27783203125 Q 0.0810546875 -0.27783203125 0.0810546875 -0.287109375 L 0.0810546875 -0.2900390625 Q 0.09716796875 -0.3505859375 0.12890625 -0.396240234375 Q 0.16064453125 -0.44189453125 0.2109375 -0.44189453125 Q 0.24560546875 -0.44189453125 0.267333984375 -0.4189453125 Q 0.2890625 -0.39599609375 0.2890625 -0.36083984375 Q 0.2890625 -0.34033203125 0.28076171875 -0.31982421875 Q 0.2705078125 -0.29248046875 0.259521484375 -0.261962890625 Q 0.24853515625 -0.2314453125 0.239501953125 -0.20166015625 Q 0.23046875 -0.171875 0.224853515625 -0.1435546875 Q 0.21923828125 -0.115234375 0.21923828125 -0.08984375 Q 0.21923828125 -0.05859375 0.23046875 -0.036865234375 Q 0.24169921875 -0.01513671875 0.27001953125 -0.01513671875 Q 0.3291015625 -0.01513671875 0.37109375 -0.087890625 L 0.44921875 -0.39990234375 Q 0.45166015625 -0.4091796875 0.45703125 -0.416015625 Q 0.46240234375 -0.4228515625 0.470947265625 -0.427001953125 Q 0.4794921875 -0.43115234375 0.48779296875 -0.43115234375 Q 0.50048828125 -0.43115234375 0.5087890625 -0.423583984375 Q 0.51708984375 -0.416015625 0.51708984375 -0.40380859375 Q 0.51708984375 -0.39892578125 0.51611328125 -0.39599609375 L 0.4169921875 0.0029296875 Q 0.40380859375 0.0546875 0.371826171875 0.1005859375 Q 0.33984375 0.146484375 0.29296875 0.17578125 Q 0.24609375 0.205078125 0.19384765625 0.205078125 Q 0.1552734375 0.205078125 0.126220703125 0.181640625 Q 0.09716796875 0.158203125 0.09716796875 0.119140625 Q 0.09716796875 0.09228515625 0.111328125 0.07373046875 Q 0.12548828125 0.05517578125 0.15087890625 0.05517578125 Q 0.166015625 0.05517578125 0.176025390625 0.064208984375 Q 0.18603515625 0.0732421875 0.18603515625 0.087890625 Q 0.18603515625 0.1083984375 0.170654296875 0.124267578125 Q 0.1552734375 0.14013671875 0.134765625 0.14013671875 Z" fill-opacity="1"/></g></g><g transform="scale(35,35)"><g transform="translate(2.342857142857143,1.9115714285714287)"><path fill="rgb(0,0,0)" stroke="none" paint-order="stroke fill markers" d=" M 0.06884765625 0 Q 0.05908203125 0 0.05908203125 -0.01318359375 Q 0.0595703125 -0.015625 0.061279296875 -0.02197265625 Q 0.06298828125 -0.0283203125 0.065673828125 -0.03173828125 Q 0.068359375 -0.03515625 0.0732421875 -0.03515625 Q 0.0986328125 -0.03515625 0.1181640625 -0.03662109375 Q 0.1376953125 -0.0380859375 0.15087890625 -0.0419921875 Q 0.16162109375 -0.04638671875 0.16796875 -0.06884765625 L 0.30517578125 -0.6181640625 Q 0.30712890625 -0.6279296875 0.30712890625 -0.6328125 Q 0.30712890625 -0.64794921875 0.23095703125 -0.64794921875 Q 0.22119140625 -0.64794921875 0.22119140625 -0.6611328125 Q 0.2216796875 -0.66357421875 0.223388671875 -0.669921875 Q 0.22509765625 -0.67626953125 0.227783203125 -0.6796875 Q 0.23046875 -0.68310546875 0.23486328125 -0.68310546875 L 0.73388671875 -0.68310546875 Q 0.744140625 -0.68310546875 0.744140625 -0.669921875 L 0.716796875 -0.462890625 Q 0.716796875 -0.4599609375 0.71337890625 -0.45703125 Q 0.7099609375 -0.4541015625 0.70703125 -0.4541015625 L 0.69189453125 -0.4541015625 Q 0.68212890625 -0.4541015625 0.68212890625 -0.466796875 Q 0.6884765625 -0.509765625 0.68994140625 -0.5478515625 Q 0.68994140625 -0.5947265625 0.67041015625 -0.6162109375 Q 0.65087890625 -0.6376953125 0.62060546875 -0.642822265625 Q 0.59033203125 -0.64794921875 0.537109375 -0.64794921875 L 0.43798828125 -0.64794921875 Q 0.41162109375 -0.64794921875 0.404052734375 -0.643310546875 Q 0.396484375 -0.638671875 0.39013671875 -0.61376953125 L 0.330078125 -0.3720703125 L 0.39697265625 -0.3720703125 Q 0.4453125 -0.3720703125 0.46875 -0.380615234375 Q 0.4921875 -0.38916015625 0.504638671875 -0.410400390625 Q 0.51708984375 -0.431640625 0.52978515625 -0.47998046875 Q 0.53076171875 -0.4833984375 0.533447265625 -0.486083984375 Q 0.5361328125 -0.48876953125 0.5400390625 -0.48876953125 L 0.55517578125 -0.48876953125 Q 0.56494140625 -0.48876953125 0.56494140625 -0.47607421875 L 0.5029296875 -0.22900390625 Q 0.5009765625 -0.22021484375 0.4931640625 -0.22021484375 L 0.47802734375 -0.22021484375 Q 0.4677734375 -0.22021484375 0.4677734375 -0.23291015625 Q 0.47900390625 -0.27490234375 0.47900390625 -0.2958984375 Q 0.47900390625 -0.32275390625 0.4560546875 -0.329833984375 Q 0.43310546875 -0.3369140625 0.39501953125 -0.3369140625 L 0.32080078125 -0.3369140625 L 0.2529296875 -0.06494140625 Q 0.2490234375 -0.0498046875 0.248046875 -0.0419921875 Q 0.248046875 -0.03515625 0.27880859375 -0.03515625 L 0.384765625 -0.03515625 Q 0.47119140625 -0.03515625 0.51904296875 -0.0576171875 Q 0.56689453125 -0.080078125 0.592529296875 -0.122314453125 Q 0.6181640625 -0.16455078125 0.65478515625 -0.255859375 Q 0.65673828125 -0.26220703125 0.6640625 -0.26220703125 L 0.67919921875 -0.26220703125 Q 0.68310546875 -0.26220703125 0.68603515625 -0.2587890625 Q 0.68896484375 -0.25537109375 0.68896484375 -0.2509765625 Q 0.68896484375 -0.25 0.68798828125 -0.2470703125 L 0.58984375 -0.005859375 Q 0.587890625 0 0.58203125 0 L 0.06884765625 0 Z" fill-opacity="1"/></g><g transform="translate(3.020857142857143,1.9115714285714287)"><path fill="rgb(0,0,0)" stroke="none" paint-order="stroke fill markers" d=" M 0.10205078125 -0.02880859375 Q 0.11865234375 -0.01513671875 0.14501953125 -0.01513671875 Q 0.17529296875 -0.01513671875 0.19580078125 -0.045166015625 Q 0.21630859375 -0.0751953125 0.22509765625 -0.11083984375 L 0.27001953125 -0.2900390625 Q 0.28076171875 -0.33203125 0.28076171875 -0.35693359375 Q 0.28076171875 -0.38134765625 0.26953125 -0.398681640625 Q 0.25830078125 -0.416015625 0.23583984375 -0.416015625 Q 0.20654296875 -0.416015625 0.18115234375 -0.3955078125 Q 0.15576171875 -0.375 0.13916015625 -0.344482421875 Q 0.12255859375 -0.31396484375 0.115234375 -0.2841796875 Q 0.1123046875 -0.27783203125 0.10693359375 -0.27783203125 L 0.0888671875 -0.27783203125 Q 0.0810546875 -0.27783203125 0.0810546875 -0.287109375 L 0.0810546875 -0.2900390625 Q 0.09033203125 -0.326171875 0.11279296875 -0.361572265625 Q 0.13525390625 -0.39697265625 0.16748046875 -0.41943359375 Q 0.19970703125 -0.44189453125 0.23681640625 -0.44189453125 Q 0.26904296875 -0.44189453125 0.295166015625 -0.4248046875 Q 0.3212890625 -0.40771484375 0.333984375 -0.3779296875 Q 0.3505859375 -0.40576171875 0.375244140625 -0.423828125 Q 0.39990234375 -0.44189453125 0.42822265625 -0.44189453125 Q 0.4453125 -0.44189453125 0.46044921875 -0.43798828125 Q 0.4755859375 -0.43408203125 0.48828125 -0.42578125 Q 0.5009765625 -0.41748046875 0.509033203125 -0.405029296875 Q 0.51708984375 -0.392578125 0.51708984375 -0.375 Q 0.51708984375 -0.3515625 0.502197265625 -0.334716796875 Q 0.4873046875 -0.31787109375 0.4638671875 -0.31787109375 Q 0.44970703125 -0.31787109375 0.439453125 -0.3271484375 Q 0.42919921875 -0.33642578125 0.42919921875 -0.35107421875 Q 0.42919921875 -0.369140625 0.44091796875 -0.38330078125 Q 0.45263671875 -0.3974609375 0.46923828125 -0.40185546875 Q 0.45361328125 -0.416015625 0.42578125 -0.416015625 Q 0.396484375 -0.416015625 0.37548828125 -0.385498046875 Q 0.3544921875 -0.35498046875 0.34619140625 -0.31982421875 L 0.30078125 -0.14111328125 Q 0.29736328125 -0.12451171875 0.293701171875 -0.106201171875 Q 0.2900390625 -0.087890625 0.2900390625 -0.07421875 Q 0.2900390625 -0.05029296875 0.3017578125 -0.03271484375 Q 0.3134765625 -0.01513671875 0.3359375 -0.01513671875 Q 0.36572265625 -0.01513671875 0.390869140625 -0.03564453125 Q 0.416015625 -0.05615234375 0.432373046875 -0.086181640625 Q 0.44873046875 -0.1162109375 0.4560546875 -0.14697265625 Q 0.4580078125 -0.15283203125 0.4638671875 -0.15283203125 L 0.48193359375 -0.15283203125 Q 0.48583984375 -0.15283203125 0.488525390625 -0.150390625 Q 0.4912109375 -0.14794921875 0.4912109375 -0.14404296875 Q 0.4912109375 -0.14306640625 0.490234375 -0.14111328125 Q 0.48095703125 -0.10400390625 0.458984375 -0.06884765625 Q 0.43701171875 -0.03369140625 0.404052734375 -0.01123046875 Q 0.37109375 0.01123046875 0.333984375 0.01123046875 Q 0.3017578125 0.01123046875 0.276123046875 -0.006103515625 Q 0.25048828125 -0.0234375 0.23779296875 -0.05322265625 Q 0.22119140625 -0.025390625 0.197265625 -0.007080078125 Q 0.17333984375 0.01123046875 0.14404296875 0.01123046875 Q 0.10986328125 0.01123046875 0.08251953125 -0.006103515625 Q 0.05517578125 -0.0234375 0.05517578125 -0.05615234375 Q 0.05517578125 -0.0791015625 0.070068359375 -0.095947265625 Q 0.0849609375 -0.11279296875 0.10693359375 -0.11279296875 Q 0.12255859375 -0.11279296875 0.1328125 -0.103759765625 Q 0.14306640625 -0.0947265625 0.14306640625 -0.080078125 Q 0.14306640625 -0.0625 0.13134765625 -0.04833984375 Q 0.11962890625 -0.0341796875 0.10205078125 -0.02880859375 Z" fill-opacity="1"/></g><g transform="translate(3.484857142857143,1.9115714285714287)"><path fill="rgb(0,0,0)" stroke="none" paint-order="stroke fill markers" d=" M 0.2548828125 0.01123046875 Q 0.220703125 0.01123046875 0.193603515625 -0.00341796875 Q 0.16650390625 -0.01806640625 0.14794921875 -0.044677734375 Q 0.12939453125 -0.0712890625 0.12060546875 -0.101806640625 Q 0.11181640625 -0.13232421875 0.11181640625 -0.1650390625 Q 0.11181640625 -0.216796875 0.130615234375 -0.266357421875 Q 0.1494140625 -0.31591796875 0.18359375 -0.35595703125 Q 0.2177734375 -0.39599609375 0.264404296875 -0.4189453125 Q 0.31103515625 -0.44189453125 0.36376953125 -0.44189453125 Q 0.3896484375 -0.44189453125 0.412841796875 -0.43212890625 Q 0.43603515625 -0.42236328125 0.450439453125 -0.403076171875 Q 0.46484375 -0.3837890625 0.46484375 -0.35693359375 Q 0.46484375 -0.27587890625 0.387451171875 -0.25244140625 Q 0.31005859375 -0.22900390625 0.205078125 -0.22900390625 L 0.2021484375 -0.22900390625 Q 0.18505859375 -0.16259765625 0.18505859375 -0.12109375 Q 0.18505859375 -0.0810546875 0.202392578125 -0.048095703125 Q 0.2197265625 -0.01513671875 0.2568359375 -0.01513671875 Q 0.3095703125 -0.01513671875 0.359130859375 -0.043701171875 Q 0.40869140625 -0.072265625 0.44189453125 -0.1181640625 Q 0.443359375 -0.12109375 0.44921875 -0.12109375 Q 0.455078125 -0.12109375 0.4658203125 -0.10693359375 Q 0.4677734375 -0.10595703125 0.4677734375 -0.10107421875 Q 0.4677734375 -0.09716796875 0.4658203125 -0.09521484375 Q 0.44287109375 -0.0625 0.4091796875 -0.038330078125 Q 0.37548828125 -0.01416015625 0.33544921875 -0.00146484375 Q 0.29541015625 0.01123046875 0.2548828125 0.01123046875 M 0.2080078125 -0.2548828125 Q 0.26318359375 -0.2548828125 0.3076171875 -0.260498046875 Q 0.35205078125 -0.26611328125 0.387451171875 -0.288818359375 Q 0.4228515625 -0.3115234375 0.4228515625 -0.35693359375 Q 0.4228515625 -0.3828125 0.4052734375 -0.3994140625 Q 0.3876953125 -0.416015625 0.36181640625 -0.416015625 Q 0.3037109375 -0.416015625 0.265380859375 -0.368896484375 Q 0.22705078125 -0.32177734375 0.2080078125 -0.2548828125 Z" fill-opacity="1"/></g><g transform="translate(3.8938571428571427,1.9115714285714287)"><path fill="rgb(0,0,0)" stroke="none" paint-order="stroke fill markers" d=" M 0.18212890625 -0.11376953125 Q 0.18212890625 -0.07470703125 0.201171875 -0.044921875 Q 0.22021484375 -0.01513671875 0.2568359375 -0.01513671875 Q 0.3095703125 -0.01513671875 0.359130859375 -0.043701171875 Q 0.40869140625 -0.072265625 0.44189453125 -0.1181640625 Q 0.443359375 -0.12109375 0.44921875 -0.12109375 Q 0.455078125 -0.12109375 0.4658203125 -0.10693359375 Q 0.4677734375 -0.10595703125 0.4677734375 -0.10107421875 Q 0.4677734375 -0.09716796875 0.4658203125 -0.09521484375 Q 0.44287109375 -0.0625 0.4091796875 -0.038330078125 Q 0.37548828125 -0.01416015625 0.33544921875 -0.00146484375 Q 0.29541015625 0.01123046875 0.2548828125 0.01123046875 Q 0.21044921875 0.01123046875 0.1767578125 -0.01123046875 Q 0.14306640625 -0.03369140625 0.12548828125 -0.0712890625 Q 0.10791015625 -0.10888671875 0.10791015625 -0.15380859375 Q 0.10791015625 -0.20263671875 0.128173828125 -0.25341796875 Q 0.1484375 -0.30419921875 0.184814453125 -0.347900390625 Q 0.22119140625 -0.3916015625 0.26708984375 -0.416748046875 Q 0.31298828125 -0.44189453125 0.36376953125 -0.44189453125 Q 0.40576171875 -0.44189453125 0.43798828125 -0.419189453125 Q 0.47021484375 -0.396484375 0.47021484375 -0.35693359375 Q 0.47021484375 -0.33984375 0.463623046875 -0.32568359375 Q 0.45703125 -0.3115234375 0.44482421875 -0.302734375 Q 0.4326171875 -0.2939453125 0.416015625 -0.2939453125 Q 0.40185546875 -0.2939453125 0.391357421875 -0.30322265625 Q 0.380859375 -0.3125 0.380859375 -0.3271484375 Q 0.380859375 -0.34716796875 0.3955078125 -0.363037109375 Q 0.41015625 -0.37890625 0.43017578125 -0.37890625 Q 0.4228515625 -0.39697265625 0.40283203125 -0.406494140625 Q 0.3828125 -0.416015625 0.36181640625 -0.416015625 Q 0.31982421875 -0.416015625 0.28564453125 -0.38427734375 Q 0.25146484375 -0.3525390625 0.22900390625 -0.304443359375 Q 0.20654296875 -0.25634765625 0.1943359375 -0.20361328125 Q 0.18212890625 -0.15087890625 0.18212890625 -0.11376953125 Z" fill-opacity="1"/></g><g transform="translate(4.353857142857143,1.9115714285714287)"><path fill="rgb(0,0,0)" stroke="none" paint-order="stroke fill markers" d=" M 0.15380859375 -0.10498046875 Q 0.15380859375 -0.1376953125 0.162841796875 -0.174072265625 Q 0.171875 -0.21044921875 0.18701171875 -0.25244140625 Q 0.2021484375 -0.29443359375 0.2138671875 -0.326171875 Q 0.22900390625 -0.36279296875 0.22900390625 -0.39013671875 Q 0.22900390625 -0.416015625 0.208984375 -0.416015625 Q 0.14697265625 -0.416015625 0.115234375 -0.2841796875 Q 0.1123046875 -0.27783203125 0.10693359375 -0.27783203125 L 0.0888671875 -0.27783203125 Q 0.0810546875 -0.27783203125 0.0810546875 -0.287109375 L 0.0810546875 -0.2900390625 Q 0.09716796875 -0.3505859375 0.12890625 -0.396240234375 Q 0.16064453125 -0.44189453125 0.2109375 -0.44189453125 Q 0.24560546875 -0.44189453125 0.267333984375 -0.4189453125 Q 0.2890625 -0.39599609375 0.2890625 -0.36083984375 Q 0.2890625 -0.34033203125 0.28076171875 -0.31982421875 Q 0.2705078125 -0.29248046875 0.259521484375 -0.261962890625 Q 0.24853515625 -0.2314453125 0.239501953125 -0.20166015625 Q 0.23046875 -0.171875 0.224853515625 -0.1435546875 Q 0.21923828125 -0.115234375 0.21923828125 -0.08984375 Q 0.21923828125 -0.05859375 0.23046875 -0.036865234375 Q 0.24169921875 -0.01513671875 0.27001953125 -0.01513671875 Q 0.3310546875 -0.01513671875 0.373046875 -0.091796875 Q 0.373046875 -0.10009765625 0.3759765625 -0.10888671875 L 0.44921875 -0.39990234375 Q 0.45166015625 -0.4091796875 0.45703125 -0.416015625 Q 0.46240234375 -0.4228515625 0.470947265625 -0.427001953125 Q 0.4794921875 -0.43115234375 0.48779296875 -0.43115234375 Q 0.50048828125 -0.43115234375 0.5087890625 -0.423583984375 Q 0.51708984375 -0.416015625 0.51708984375 -0.40380859375 Q 0.51708984375 -0.39892578125 0.51611328125 -0.39599609375 L 0.44384765625 -0.10693359375 Q 0.43603515625 -0.07666015625 0.43603515625 -0.05322265625 Q 0.43603515625 -0.01513671875 0.4609375 -0.01513671875 Q 0.486328125 -0.01513671875 0.501708984375 -0.0546875 Q 0.51708984375 -0.09423828125 0.52880859375 -0.14697265625 Q 0.53076171875 -0.15283203125 0.537109375 -0.15283203125 L 0.55517578125 -0.15283203125 Q 0.55908203125 -0.15283203125 0.5615234375 -0.1494140625 Q 0.56396484375 -0.14599609375 0.56396484375 -0.14306640625 Q 0.55224609375 -0.09814453125 0.547607421875 -0.08203125 Q 0.54296875 -0.06591796875 0.531494140625 -0.04248046875 Q 0.52001953125 -0.01904296875 0.502197265625 -0.00390625 Q 0.484375 0.01123046875 0.458984375 0.01123046875 Q 0.43115234375 0.01123046875 0.408935546875 -0.004638671875 Q 0.38671875 -0.0205078125 0.376953125 -0.046875 Q 0.3291015625 0.01123046875 0.26806640625 0.01123046875 Q 0.21435546875 0.01123046875 0.18408203125 -0.02001953125 Q 0.15380859375 -0.05126953125 0.15380859375 -0.10498046875 Z" fill-opacity="1"/></g><g transform="translate(4.890857142857143,1.9115714285714287)"><path fill="rgb(0,0,0)" stroke="none" paint-order="stroke fill markers" d=" M 0.1171875 -0.0791015625 Q 0.1171875 -0.08935546875 0.12109375 -0.10888671875 L 0.19287109375 -0.39599609375 L 0.10009765625 -0.39599609375 Q 0.08984375 -0.39599609375 0.08984375 -0.4091796875 Q 0.09375 -0.43115234375 0.10302734375 -0.43115234375 L 0.2021484375 -0.43115234375 L 0.2431640625 -0.59521484375 Q 0.24560546875 -0.6044921875 0.2509765625 -0.611083984375 Q 0.25634765625 -0.61767578125 0.26513671875 -0.621826171875 Q 0.27392578125 -0.6259765625 0.2822265625 -0.6259765625 Q 0.294921875 -0.6259765625 0.302978515625 -0.618408203125 Q 0.31103515625 -0.61083984375 0.31103515625 -0.59912109375 Q 0.31103515625 -0.59423828125 0.31005859375 -0.5908203125 L 0.27001953125 -0.43115234375 L 0.36279296875 -0.43115234375 Q 0.373046875 -0.43115234375 0.373046875 -0.41796875 Q 0.37255859375 -0.41552734375 0.37109375 -0.40966796875 Q 0.36962890625 -0.40380859375 0.3671875 -0.39990234375 Q 0.36474609375 -0.39599609375 0.35986328125 -0.39599609375 L 0.26123046875 -0.39599609375 L 0.18896484375 -0.10693359375 Q 0.18115234375 -0.07666015625 0.18115234375 -0.05322265625 Q 0.18115234375 -0.01513671875 0.2060546875 -0.01513671875 Q 0.2470703125 -0.01513671875 0.276611328125 -0.0556640625 Q 0.30615234375 -0.09619140625 0.32421875 -0.14697265625 Q 0.328125 -0.15283203125 0.33203125 -0.15283203125 L 0.35009765625 -0.15283203125 Q 0.35400390625 -0.15283203125 0.3564453125 -0.150146484375 Q 0.35888671875 -0.1474609375 0.35888671875 -0.14404296875 Q 0.35888671875 -0.14208984375 0.35791015625 -0.14111328125 Q 0.33740234375 -0.08251953125 0.29736328125 -0.03564453125 Q 0.25732421875 0.01123046875 0.2041015625 0.01123046875 Q 0.17919921875 0.01123046875 0.158935546875 -0.000732421875 Q 0.138671875 -0.0126953125 0.1279296875 -0.033203125 Q 0.1171875 -0.0537109375 0.1171875 -0.0791015625 Z" fill-opacity="1"/></g><g transform="translate(5.222857142857142,1.9115714285714287)"><path fill="rgb(0,0,0)" stroke="none" paint-order="stroke fill markers" d=" M 0.126953125 -0.06982421875 Q 0.126953125 -0.09326171875 0.1337890625 -0.11083984375 L 0.2138671875 -0.326171875 Q 0.22802734375 -0.36474609375 0.22802734375 -0.39013671875 Q 0.22802734375 -0.416015625 0.208984375 -0.416015625 Q 0.14697265625 -0.416015625 0.115234375 -0.2841796875 Q 0.1123046875 -0.27783203125 0.10693359375 -0.27783203125 L 0.0888671875 -0.27783203125 Q 0.0810546875 -0.27783203125 0.0810546875 -0.287109375 L 0.0810546875 -0.2900390625 Q 0.09716796875 -0.35009765625 0.128662109375 -0.39599609375 Q 0.16015625 -0.44189453125 0.2109375 -0.44189453125 Q 0.2451171875 -0.44189453125 0.2666015625 -0.4189453125 Q 0.2880859375 -0.39599609375 0.2880859375 -0.36083984375 Q 0.2880859375 -0.341796875 0.28076171875 -0.31982421875 L 0.201171875 -0.10498046875 Q 0.18701171875 -0.06640625 0.18701171875 -0.041015625 Q 0.18701171875 -0.01513671875 0.2060546875 -0.01513671875 Q 0.26708984375 -0.01513671875 0.298828125 -0.14697265625 Q 0.30078125 -0.15283203125 0.30712890625 -0.15283203125 L 0.3251953125 -0.15283203125 Q 0.3291015625 -0.15283203125 0.33154296875 -0.150146484375 Q 0.333984375 -0.1474609375 0.333984375 -0.14404296875 Q 0.333984375 -0.14306640625 0.3330078125 -0.14111328125 Q 0.32470703125 -0.1064453125 0.30810546875 -0.0712890625 Q 0.29150390625 -0.0361328125 0.26513671875 -0.012451171875 Q 0.23876953125 0.01123046875 0.2041015625 0.01123046875 Q 0.17041015625 0.01123046875 0.148681640625 -0.011962890625 Q 0.126953125 -0.03515625 0.126953125 -0.06982421875 M 0.2412109375 -0.60498046875 Q 0.2412109375 -0.625 0.257080078125 -0.640380859375 Q 0.27294921875 -0.65576171875 0.29296875 -0.65576171875 Q 0.30810546875 -0.65576171875 0.318115234375 -0.646240234375 Q 0.328125 -0.63671875 0.328125 -0.6220703125 Q 0.328125 -0.609375 0.321044921875 -0.597412109375 Q 0.31396484375 -0.58544921875 0.301513671875 -0.578125 Q 0.2890625 -0.57080078125 0.27587890625 -0.57080078125 Q 0.26220703125 -0.57080078125 0.251708984375 -0.580810546875 Q 0.2412109375 -0.5908203125 0.2412109375 -0.60498046875 Z" fill-opacity="1"/></g><g transform="translate(5.529857142857143,1.9115714285714287)"><path fill="rgb(0,0,0)" stroke="none" paint-order="stroke fill markers" d=" M 0.2548828125 0.01123046875 Q 0.21044921875 0.01123046875 0.1767578125 -0.01123046875 Q 0.14306640625 -0.03369140625 0.12548828125 -0.0712890625 Q 0.10791015625 -0.10888671875 0.10791015625 -0.15380859375 Q 0.10791015625 -0.20263671875 0.128173828125 -0.25341796875 Q 0.1484375 -0.30419921875 0.184814453125 -0.347900390625 Q 0.22119140625 -0.3916015625 0.26708984375 -0.416748046875 Q 0.31298828125 -0.44189453125 0.36376953125 -0.44189453125 Q 0.40869140625 -0.44189453125 0.442138671875 -0.419677734375 Q 0.4755859375 -0.3974609375 0.493408203125 -0.360107421875 Q 0.51123046875 -0.32275390625 0.51123046875 -0.27685546875 Q 0.51123046875 -0.228515625 0.491455078125 -0.177734375 Q 0.4716796875 -0.126953125 0.435546875 -0.08349609375 Q 0.3994140625 -0.0400390625 0.35302734375 -0.014404296875 Q 0.306640625 0.01123046875 0.2548828125 0.01123046875 M 0.2568359375 -0.01513671875 Q 0.29833984375 -0.01513671875 0.33251953125 -0.04638671875 Q 0.36669921875 -0.07763671875 0.390380859375 -0.127197265625 Q 0.4140625 -0.1767578125 0.425537109375 -0.228515625 Q 0.43701171875 -0.2802734375 0.43701171875 -0.31689453125 Q 0.43701171875 -0.34130859375 0.42919921875 -0.3642578125 Q 0.42138671875 -0.38720703125 0.404052734375 -0.401611328125 Q 0.38671875 -0.416015625 0.36181640625 -0.416015625 Q 0.31982421875 -0.416015625 0.28564453125 -0.38427734375 Q 0.25146484375 -0.3525390625 0.22900390625 -0.304443359375 Q 0.20654296875 -0.25634765625 0.1943359375 -0.20361328125 Q 0.18212890625 -0.15087890625 0.18212890625 -0.11376953125 Q 0.18212890625 -0.07470703125 0.201171875 -0.044921875 Q 0.22021484375 -0.01513671875 0.2568359375 -0.01513671875 Z" fill-opacity="1"/></g><g transform="translate(6.040857142857143,1.9115714285714287)"><path fill="rgb(0,0,0)" stroke="none" paint-order="stroke fill markers" d=" M 0.125 -0.01611328125 Q 0.125 -0.02099609375 0.1259765625 -0.02392578125 L 0.201171875 -0.32421875 Q 0.208984375 -0.361328125 0.208984375 -0.3779296875 Q 0.208984375 -0.416015625 0.18408203125 -0.416015625 Q 0.15869140625 -0.416015625 0.143798828125 -0.37744140625 Q 0.12890625 -0.3388671875 0.115234375 -0.2841796875 Q 0.1123046875 -0.27783203125 0.10693359375 -0.27783203125 L 0.0888671875 -0.27783203125 Q 0.0859375 -0.27783203125 0.08349609375 -0.281494140625 Q 0.0810546875 -0.28515625 0.0810546875 -0.2880859375 Q 0.0927734375 -0.3359375 0.101806640625 -0.36376953125 Q 0.11083984375 -0.3916015625 0.132080078125 -0.416748046875 Q 0.1533203125 -0.44189453125 0.18505859375 -0.44189453125 Q 0.21875 -0.44189453125 0.24267578125 -0.421142578125 Q 0.2666015625 -0.400390625 0.27197265625 -0.3662109375 Q 0.3310546875 -0.44189453125 0.4150390625 -0.44189453125 Q 0.4462890625 -0.44189453125 0.47021484375 -0.429443359375 Q 0.494140625 -0.4169921875 0.507080078125 -0.393310546875 Q 0.52001953125 -0.36962890625 0.52001953125 -0.337890625 Q 0.52001953125 -0.2958984375 0.50146484375 -0.236083984375 Q 0.48291015625 -0.17626953125 0.4560546875 -0.10498046875 Q 0.44091796875 -0.06640625 0.44091796875 -0.041015625 Q 0.44091796875 -0.01513671875 0.4609375 -0.01513671875 Q 0.49853515625 -0.01513671875 0.520263671875 -0.055908203125 Q 0.5419921875 -0.0966796875 0.55419921875 -0.14697265625 Q 0.55615234375 -0.15283203125 0.56201171875 -0.15283203125 L 0.580078125 -0.15283203125 Q 0.583984375 -0.15283203125 0.58642578125 -0.150146484375 Q 0.5888671875 -0.1474609375 0.5888671875 -0.14404296875 Q 0.5888671875 -0.14306640625 0.587890625 -0.14111328125 Q 0.57958984375 -0.1064453125 0.56298828125 -0.0712890625 Q 0.54638671875 -0.0361328125 0.51953125 -0.012451171875 Q 0.49267578125 0.01123046875 0.458984375 0.01123046875 Q 0.42431640625 0.01123046875 0.402587890625 -0.011962890625 Q 0.380859375 -0.03515625 0.380859375 -0.06982421875 Q 0.380859375 -0.09130859375 0.38916015625 -0.11083984375 Q 0.4169921875 -0.185546875 0.43603515625 -0.24658203125 Q 0.455078125 -0.3076171875 0.455078125 -0.35302734375 Q 0.455078125 -0.37841796875 0.445556640625 -0.397216796875 Q 0.43603515625 -0.416015625 0.4130859375 -0.416015625 Q 0.3212890625 -0.416015625 0.2587890625 -0.2841796875 L 0.19287109375 -0.02001953125 Q 0.18994140625 -0.00732421875 0.1787109375 0.001953125 Q 0.16748046875 0.01123046875 0.15380859375 0.01123046875 Q 0.14208984375 0.01123046875 0.133544921875 0.003173828125 Q 0.125 -0.0048828125 0.125 -0.01611328125 Z" fill-opacity="1"/></g></g><g transform="scale(35,35)"><g transform="translate(17.457142857142856,7.025857142857142)"><path fill="rgb(0,0,0)" stroke="none" paint-order="stroke fill markers" d=" M 0.34619140625 0.01123046875 L 0.2861328125 -0.6259765625 Q 0.28076171875 -0.64794921875 0.2177734375 -0.64794921875 Q 0.2080078125 -0.64794921875 0.2080078125 -0.6611328125 Q 0.21142578125 -0.673828125 0.21337890625 -0.678466796875 Q 0.21533203125 -0.68310546875 0.22509765625 -0.68310546875 L 0.453125 -0.68310546875 Q 0.45751953125 -0.68310546875 0.459716796875 -0.678955078125 Q 0.4619140625 -0.6748046875 0.4619140625 -0.669921875 Q 0.4580078125 -0.64794921875 0.44921875 -0.64794921875 Q 0.376953125 -0.64794921875 0.373046875 -0.62109375 L 0.421875 -0.10400390625 L 0.7119140625 -0.58984375 Q 0.72021484375 -0.60546875 0.72021484375 -0.6171875 Q 0.72021484375 -0.63330078125 0.7060546875 -0.640625 Q 0.69189453125 -0.64794921875 0.673828125 -0.64794921875 Q 0.6640625 -0.64794921875 0.6640625 -0.6611328125 Q 0.666015625 -0.671875 0.6689453125 -0.677490234375 Q 0.671875 -0.68310546875 0.68115234375 -0.68310546875 L 0.85791015625 -0.68310546875 Q 0.86328125 -0.68310546875 0.86572265625 -0.67919921875 Q 0.8681640625 -0.67529296875 0.8681640625 -0.669921875 Q 0.86767578125 -0.66748046875 0.8662109375 -0.66162109375 Q 0.86474609375 -0.65576171875 0.8623046875 -0.65185546875 Q 0.85986328125 -0.64794921875 0.85498046875 -0.64794921875 Q 0.78564453125 -0.64794921875 0.74609375 -0.5830078125 Q 0.74365234375 -0.58056640625 0.7431640625 -0.580078125 L 0.39111328125 0.01123046875 Q 0.3837890625 0.02197265625 0.373046875 0.02197265625 L 0.35888671875 0.02197265625 Q 0.34619140625 0.02197265625 0.34619140625 0.01123046875 Z" fill-opacity="1"/></g><g transform="translate(18.123142857142852,7.025857142857142)"><path fill="rgb(0,0,0)" stroke="none" paint-order="stroke fill markers" d=" M 0.2548828125 0.01123046875 Q 0.220703125 0.01123046875 0.193603515625 -0.00341796875 Q 0.16650390625 -0.01806640625 0.14794921875 -0.044677734375 Q 0.12939453125 -0.0712890625 0.12060546875 -0.101806640625 Q 0.11181640625 -0.13232421875 0.11181640625 -0.1650390625 Q 0.11181640625 -0.216796875 0.130615234375 -0.266357421875 Q 0.1494140625 -0.31591796875 0.18359375 -0.35595703125 Q 0.2177734375 -0.39599609375 0.264404296875 -0.4189453125 Q 0.31103515625 -0.44189453125 0.36376953125 -0.44189453125 Q 0.3896484375 -0.44189453125 0.412841796875 -0.43212890625 Q 0.43603515625 -0.42236328125 0.450439453125 -0.403076171875 Q 0.46484375 -0.3837890625 0.46484375 -0.35693359375 Q 0.46484375 -0.27587890625 0.387451171875 -0.25244140625 Q 0.31005859375 -0.22900390625 0.205078125 -0.22900390625 L 0.2021484375 -0.22900390625 Q 0.18505859375 -0.16259765625 0.18505859375 -0.12109375 Q 0.18505859375 -0.0810546875 0.202392578125 -0.048095703125 Q 0.2197265625 -0.01513671875 0.2568359375 -0.01513671875 Q 0.3095703125 -0.01513671875 0.359130859375 -0.043701171875 Q 0.40869140625 -0.072265625 0.44189453125 -0.1181640625 Q 0.443359375 -0.12109375 0.44921875 -0.12109375 Q 0.455078125 -0.12109375 0.4658203125 -0.10693359375 Q 0.4677734375 -0.10595703125 0.4677734375 -0.10107421875 Q 0.4677734375 -0.09716796875 0.4658203125 -0.09521484375 Q 0.44287109375 -0.0625 0.4091796875 -0.038330078125 Q 0.37548828125 -0.01416015625 0.33544921875 -0.00146484375 Q 0.29541015625 0.01123046875 0.2548828125 0.01123046875 M 0.2080078125 -0.2548828125 Q 0.26318359375 -0.2548828125 0.3076171875 -0.260498046875 Q 0.35205078125 -0.26611328125 0.387451171875 -0.288818359375 Q 0.4228515625 -0.3115234375 0.4228515625 -0.35693359375 Q 0.4228515625 -0.3828125 0.4052734375 -0.3994140625 Q 0.3876953125 -0.416015625 0.36181640625 -0.416015625 Q 0.3037109375 -0.416015625 0.265380859375 -0.368896484375 Q 0.22705078125 -0.32177734375 0.2080078125 -0.2548828125 Z" fill-opacity="1"/></g><g transform="translate(18.583142857142853,7.025857142857142)"><path fill="rgb(0,0,0)" stroke="none" paint-order="stroke fill markers" d=" M 0.125 -0.01611328125 Q 0.125 -0.02099609375 0.1259765625 -0.02392578125 L 0.201171875 -0.32421875 Q 0.208984375 -0.361328125 0.208984375 -0.3779296875 Q 0.208984375 -0.416015625 0.18408203125 -0.416015625 Q 0.15869140625 -0.416015625 0.143798828125 -0.37744140625 Q 0.12890625 -0.3388671875 0.115234375 -0.2841796875 Q 0.1123046875 -0.27783203125 0.10693359375 -0.27783203125 L 0.0888671875 -0.27783203125 Q 0.0859375 -0.27783203125 0.08349609375 -0.281494140625 Q 0.0810546875 -0.28515625 0.0810546875 -0.2880859375 Q 0.0927734375 -0.3359375 0.101806640625 -0.36376953125 Q 0.11083984375 -0.3916015625 0.132080078125 -0.416748046875 Q 0.1533203125 -0.44189453125 0.18505859375 -0.44189453125 Q 0.216796875 -0.44189453125 0.239990234375 -0.423583984375 Q 0.26318359375 -0.4052734375 0.27001953125 -0.3740234375 Q 0.3212890625 -0.44189453125 0.38916015625 -0.44189453125 Q 0.412109375 -0.44189453125 0.434814453125 -0.43505859375 Q 0.45751953125 -0.42822265625 0.47265625 -0.412841796875 Q 0.48779296875 -0.3974609375 0.48779296875 -0.375 Q 0.48779296875 -0.3515625 0.472900390625 -0.334716796875 Q 0.4580078125 -0.31787109375 0.43505859375 -0.31787109375 Q 0.4208984375 -0.31787109375 0.410400390625 -0.3271484375 Q 0.39990234375 -0.33642578125 0.39990234375 -0.35107421875 Q 0.39990234375 -0.36767578125 0.411376953125 -0.382080078125 Q 0.4228515625 -0.396484375 0.43896484375 -0.40087890625 Q 0.41845703125 -0.416015625 0.38720703125 -0.416015625 Q 0.3154296875 -0.416015625 0.26318359375 -0.296875 L 0.19287109375 -0.02001953125 Q 0.18994140625 -0.00732421875 0.1787109375 0.001953125 Q 0.16748046875 0.01123046875 0.15380859375 0.01123046875 Q 0.14208984375 0.01123046875 0.133544921875 0.003173828125 Q 0.125 -0.0048828125 0.125 -0.01611328125 Z" fill-opacity="1"/></g><g transform="translate(19.005142857142854,7.025857142857142)"><path fill="rgb(0,0,0)" stroke="none" paint-order="stroke fill markers" d=" M 0.1171875 -0.0791015625 Q 0.1171875 -0.08935546875 0.12109375 -0.10888671875 L 0.19287109375 -0.39599609375 L 0.10009765625 -0.39599609375 Q 0.08984375 -0.39599609375 0.08984375 -0.4091796875 Q 0.09375 -0.43115234375 0.10302734375 -0.43115234375 L 0.2021484375 -0.43115234375 L 0.2431640625 -0.59521484375 Q 0.24560546875 -0.6044921875 0.2509765625 -0.611083984375 Q 0.25634765625 -0.61767578125 0.26513671875 -0.621826171875 Q 0.27392578125 -0.6259765625 0.2822265625 -0.6259765625 Q 0.294921875 -0.6259765625 0.302978515625 -0.618408203125 Q 0.31103515625 -0.61083984375 0.31103515625 -0.59912109375 Q 0.31103515625 -0.59423828125 0.31005859375 -0.5908203125 L 0.27001953125 -0.43115234375 L 0.36279296875 -0.43115234375 Q 0.373046875 -0.43115234375 0.373046875 -0.41796875 Q 0.37255859375 -0.41552734375 0.37109375 -0.40966796875 Q 0.36962890625 -0.40380859375 0.3671875 -0.39990234375 Q 0.36474609375 -0.39599609375 0.35986328125 -0.39599609375 L 0.26123046875 -0.39599609375 L 0.18896484375 -0.10693359375 Q 0.18115234375 -0.07666015625 0.18115234375 -0.05322265625 Q 0.18115234375 -0.01513671875 0.2060546875 -0.01513671875 Q 0.2470703125 -0.01513671875 0.276611328125 -0.0556640625 Q 0.30615234375 -0.09619140625 0.32421875 -0.14697265625 Q 0.328125 -0.15283203125 0.33203125 -0.15283203125 L 0.35009765625 -0.15283203125 Q 0.35400390625 -0.15283203125 0.3564453125 -0.150146484375 Q 0.35888671875 -0.1474609375 0.35888671875 -0.14404296875 Q 0.35888671875 -0.14208984375 0.35791015625 -0.14111328125 Q 0.33740234375 -0.08251953125 0.29736328125 -0.03564453125 Q 0.25732421875 0.01123046875 0.2041015625 0.01123046875 Q 0.17919921875 0.01123046875 0.158935546875 -0.000732421875 Q 0.138671875 -0.0126953125 0.1279296875 -0.033203125 Q 0.1171875 -0.0537109375 0.1171875 -0.0791015625 Z" fill-opacity="1"/></g><g transform="translate(19.337142857142855,7.025857142857142)"><path fill="rgb(0,0,0)" stroke="none" paint-order="stroke fill markers" d=" M 0.2548828125 0.01123046875 Q 0.220703125 0.01123046875 0.193603515625 -0.00341796875 Q 0.16650390625 -0.01806640625 0.14794921875 -0.044677734375 Q 0.12939453125 -0.0712890625 0.12060546875 -0.101806640625 Q 0.11181640625 -0.13232421875 0.11181640625 -0.1650390625 Q 0.11181640625 -0.216796875 0.130615234375 -0.266357421875 Q 0.1494140625 -0.31591796875 0.18359375 -0.35595703125 Q 0.2177734375 -0.39599609375 0.264404296875 -0.4189453125 Q 0.31103515625 -0.44189453125 0.36376953125 -0.44189453125 Q 0.3896484375 -0.44189453125 0.412841796875 -0.43212890625 Q 0.43603515625 -0.42236328125 0.450439453125 -0.403076171875 Q 0.46484375 -0.3837890625 0.46484375 -0.35693359375 Q 0.46484375 -0.27587890625 0.387451171875 -0.25244140625 Q 0.31005859375 -0.22900390625 0.205078125 -0.22900390625 L 0.2021484375 -0.22900390625 Q 0.18505859375 -0.16259765625 0.18505859375 -0.12109375 Q 0.18505859375 -0.0810546875 0.202392578125 -0.048095703125 Q 0.2197265625 -0.01513671875 0.2568359375 -0.01513671875 Q 0.3095703125 -0.01513671875 0.359130859375 -0.043701171875 Q 0.40869140625 -0.072265625 0.44189453125 -0.1181640625 Q 0.443359375 -0.12109375 0.44921875 -0.12109375 Q 0.455078125 -0.12109375 0.4658203125 -0.10693359375 Q 0.4677734375 -0.10595703125 0.4677734375 -0.10107421875 Q 0.4677734375 -0.09716796875 0.4658203125 -0.09521484375 Q 0.44287109375 -0.0625 0.4091796875 -0.038330078125 Q 0.37548828125 -0.01416015625 0.33544921875 -0.00146484375 Q 0.29541015625 0.01123046875 0.2548828125 0.01123046875 M 0.2080078125 -0.2548828125 Q 0.26318359375 -0.2548828125 0.3076171875 -0.260498046875 Q 0.35205078125 -0.26611328125 0.387451171875 -0.288818359375 Q 0.4228515625 -0.3115234375 0.4228515625 -0.35693359375 Q 0.4228515625 -0.3828125 0.4052734375 -0.3994140625 Q 0.3876953125 -0.416015625 0.36181640625 -0.416015625 Q 0.3037109375 -0.416015625 0.265380859375 -0.368896484375 Q 0.22705078125 -0.32177734375 0.2080078125 -0.2548828125 Z" fill-opacity="1"/></g><g transform="translate(19.797142857142855,7.025857142857142)"><path fill="rgb(0,0,0)" stroke="none" paint-order="stroke fill markers" d=" M 0.10205078125 -0.02880859375 Q 0.11865234375 -0.01513671875 0.14501953125 -0.01513671875 Q 0.17529296875 -0.01513671875 0.19580078125 -0.045166015625 Q 0.21630859375 -0.0751953125 0.22509765625 -0.11083984375 L 0.27001953125 -0.2900390625 Q 0.28076171875 -0.33203125 0.28076171875 -0.35693359375 Q 0.28076171875 -0.38134765625 0.26953125 -0.398681640625 Q 0.25830078125 -0.416015625 0.23583984375 -0.416015625 Q 0.20654296875 -0.416015625 0.18115234375 -0.3955078125 Q 0.15576171875 -0.375 0.13916015625 -0.344482421875 Q 0.12255859375 -0.31396484375 0.115234375 -0.2841796875 Q 0.1123046875 -0.27783203125 0.10693359375 -0.27783203125 L 0.0888671875 -0.27783203125 Q 0.0810546875 -0.27783203125 0.0810546875 -0.287109375 L 0.0810546875 -0.2900390625 Q 0.09033203125 -0.326171875 0.11279296875 -0.361572265625 Q 0.13525390625 -0.39697265625 0.16748046875 -0.41943359375 Q 0.19970703125 -0.44189453125 0.23681640625 -0.44189453125 Q 0.26904296875 -0.44189453125 0.295166015625 -0.4248046875 Q 0.3212890625 -0.40771484375 0.333984375 -0.3779296875 Q 0.3505859375 -0.40576171875 0.375244140625 -0.423828125 Q 0.39990234375 -0.44189453125 0.42822265625 -0.44189453125 Q 0.4453125 -0.44189453125 0.46044921875 -0.43798828125 Q 0.4755859375 -0.43408203125 0.48828125 -0.42578125 Q 0.5009765625 -0.41748046875 0.509033203125 -0.405029296875 Q 0.51708984375 -0.392578125 0.51708984375 -0.375 Q 0.51708984375 -0.3515625 0.502197265625 -0.334716796875 Q 0.4873046875 -0.31787109375 0.4638671875 -0.31787109375 Q 0.44970703125 -0.31787109375 0.439453125 -0.3271484375 Q 0.42919921875 -0.33642578125 0.42919921875 -0.35107421875 Q 0.42919921875 -0.369140625 0.44091796875 -0.38330078125 Q 0.45263671875 -0.3974609375 0.46923828125 -0.40185546875 Q 0.45361328125 -0.416015625 0.42578125 -0.416015625 Q 0.396484375 -0.416015625 0.37548828125 -0.385498046875 Q 0.3544921875 -0.35498046875 0.34619140625 -0.31982421875 L 0.30078125 -0.14111328125 Q 0.29736328125 -0.12451171875 0.293701171875 -0.106201171875 Q 0.2900390625 -0.087890625 0.2900390625 -0.07421875 Q 0.2900390625 -0.05029296875 0.3017578125 -0.03271484375 Q 0.3134765625 -0.01513671875 0.3359375 -0.01513671875 Q 0.36572265625 -0.01513671875 0.390869140625 -0.03564453125 Q 0.416015625 -0.05615234375 0.432373046875 -0.086181640625 Q 0.44873046875 -0.1162109375 0.4560546875 -0.14697265625 Q 0.4580078125 -0.15283203125 0.4638671875 -0.15283203125 L 0.48193359375 -0.15283203125 Q 0.48583984375 -0.15283203125 0.488525390625 -0.150390625 Q 0.4912109375 -0.14794921875 0.4912109375 -0.14404296875 Q 0.4912109375 -0.14306640625 0.490234375 -0.14111328125 Q 0.48095703125 -0.10400390625 0.458984375 -0.06884765625 Q 0.43701171875 -0.03369140625 0.404052734375 -0.01123046875 Q 0.37109375 0.01123046875 0.333984375 0.01123046875 Q 0.3017578125 0.01123046875 0.276123046875 -0.006103515625 Q 0.25048828125 -0.0234375 0.23779296875 -0.05322265625 Q 0.22119140625 -0.025390625 0.197265625 -0.007080078125 Q 0.17333984375 0.01123046875 0.14404296875 0.01123046875 Q 0.10986328125 0.01123046875 0.08251953125 -0.006103515625 Q 0.05517578125 -0.0234375 0.05517578125 -0.05615234375 Q 0.05517578125 -0.0791015625 0.070068359375 -0.095947265625 Q 0.0849609375 -0.11279296875 0.10693359375 -0.11279296875 Q 0.12255859375 -0.11279296875 0.1328125 -0.103759765625 Q 0.14306640625 -0.0947265625 0.14306640625 -0.080078125 Q 0.14306640625 -0.0625 0.13134765625 -0.04833984375 Q 0.11962890625 -0.0341796875 0.10205078125 -0.02880859375 Z" fill-opacity="1"/></g></g><g transform="scale(35,35)"><g transform="translate(0.6857142857142857,26.225857142857144)"><path fill="rgb(0,0,0)" stroke="none" paint-order="stroke fill markers" d=" M 0.3779296875 0.02197265625 Q 0.3251953125 0.02197265625 0.28173828125 0.00146484375 Q 0.23828125 -0.01904296875 0.20849609375 -0.05517578125 Q 0.1787109375 -0.09130859375 0.163330078125 -0.138427734375 Q 0.14794921875 -0.185546875 0.14794921875 -0.23583984375 Q 0.14794921875 -0.3408203125 0.205078125 -0.450927734375 Q 0.26220703125 -0.56103515625 0.357666015625 -0.633056640625 Q 0.453125 -0.705078125 0.56005859375 -0.705078125 Q 0.630859375 -0.705078125 0.682861328125 -0.66943359375 Q 0.73486328125 -0.6337890625 0.761474609375 -0.573974609375 Q 0.7880859375 -0.51416015625 0.7880859375 -0.44384765625 Q 0.7880859375 -0.365234375 0.75634765625 -0.282958984375 Q 0.724609375 -0.20068359375 0.666748046875 -0.130859375 Q 0.60888671875 -0.06103515625 0.53369140625 -0.01953125 Q 0.45849609375 0.02197265625 0.3779296875 0.02197265625 M 0.38623046875 -0.0078125 Q 0.4345703125 -0.0078125 0.480712890625 -0.0361328125 Q 0.52685546875 -0.064453125 0.56396484375 -0.10791015625 Q 0.603515625 -0.15478515625 0.634033203125 -0.2197265625 Q 0.66455078125 -0.28466796875 0.681884765625 -0.355712890625 Q 0.69921875 -0.4267578125 0.69921875 -0.48583984375 Q 0.69921875 -0.52294921875 0.690673828125 -0.556396484375 Q 0.68212890625 -0.58984375 0.664306640625 -0.616943359375 Q 0.646484375 -0.64404296875 0.618896484375 -0.659912109375 Q 0.59130859375 -0.67578125 0.55322265625 -0.67578125 Q 0.52099609375 -0.67578125 0.488525390625 -0.66357421875 Q 0.4560546875 -0.6513671875 0.42822265625 -0.630615234375 Q 0.400390625 -0.60986328125 0.3759765625 -0.5830078125 Q 0.33544921875 -0.5380859375 0.30517578125 -0.473388671875 Q 0.27490234375 -0.40869140625 0.258544921875 -0.33837890625 Q 0.2421875 -0.26806640625 0.2421875 -0.205078125 Q 0.2421875 -0.15625 0.256591796875 -0.111083984375 Q 0.27099609375 -0.06591796875 0.30322265625 -0.036865234375 Q 0.33544921875 -0.0078125 0.38623046875 -0.0078125 Z" fill-opacity="1"/></g></g></g></g></svg>